<svg style="position: absolute; width: 0; height: 0; overflow: hidden;" aria-hidden="true" version="1.1" xmlns="http://www.w3.org/2000/svg" xmlns:xlink="http://www.w3.org/1999/xlink">
    <style>
        .default-palette, .palette0 {color: currentColor;
            --color0: #1b414b;
            --color1: #fbfbfb;
        }
    </style>
    <defs>
        <symbol id="youtube-blue" viewBox="0 0 20 20" fill="none">
            <path fill="var(--color0, #1b414b)" d="M11.67 9.826 9.33 8.734C9.126 8.64 8.958 8.746 8.958 8.972v2.056c0 0.226 0.168 0.332 0.372 0.238l2.339-1.092c0.205-0.096 0.205-0.252 0-0.348M10 0C4.477 0 0 4.477 0 10s4.477 10 10 10 10-4.477 10-10S15.523 0 10 0M10 14.063c-5.119 0-5.208-0.462-5.208-4.063S4.882 5.938 10 5.938 15.208 6.399 15.208 10 15.118 14.063 10 14.063" />
        </symbol>
        <symbol id="insta-white" viewBox="0 0 19 19" fill="none">
            <path fill="var(--color1, #fbfbfb)" d="M13.885 0h-8.77A5.12 5.12 0 0 0 0 5.115v8.77A5.12 5.12 0 0 0 5.115 19h8.77A5.12 5.12 0 0 0 19 13.885v-8.77A5.12 5.12 0 0 0 13.885 0M9.5 13.885a4.384 4.384 0 1 1 0-8.77 4.384 4.384 0 0 1 0 8.77M14.98 5.115a1.096 1.096 0 1 1 0-2.192 1.096 1.096 0 0 1 0 2.192M12.424 9.5a2.923 2.923 0 1 1-5.846 0 2.923 2.923 0 0 1 5.846 0" />
        </symbol>
        <symbol id="insta-blue" viewBox="0 0 19 19" fill="none">
            <path fill="var(--color0, #1b414b)" d="M13.885 0h-8.77A5.12 5.12 0 0 0 0 5.115v8.77A5.12 5.12 0 0 0 5.115 19h8.77A5.12 5.12 0 0 0 19 13.885v-8.77A5.12 5.12 0 0 0 13.885 0M9.5 13.885a4.384 4.384 0 1 1 0-8.77 4.384 4.384 0 0 1 0 8.77M14.98 5.115a1.096 1.096 0 1 1 0-2.192 1.096 1.096 0 0 1 0 2.192M12.424 9.5a2.923 2.923 0 1 1-5.846 0 2.923 2.923 0 0 1 5.846 0" />
        </symbol>
        <symbol id="face-white" viewBox="0 0 20 20" fill="none">
            <path fill="var(--color1, #fbfbfb)" d="M20 10.025C20 4.491 15.52 0 10 0S0 4.491 0 10.025c0 4.852 3.44 8.892 8 9.825v-6.817H6v-3.008h2V7.52a3.51 3.51 0 0 1 3.5-3.509H14v3.008h-2c-0.55 0-1 0.45-1 1.002v2.005h3v3.008h-3V20c5.05-0.501 9-4.772 9-9.975" />
        </symbol>
        <symbol id="face-blue" viewBox="0 0 20 20" fill="none">
            <path fill="var(--color0, #1b414b)" d="M20 10.025C20 4.491 15.52 0 10 0S0 4.491 0 10.025c0 4.852 3.44 8.892 8 9.825v-6.817H6v-3.008h2V7.52a3.51 3.51 0 0 1 3.5-3.509H14v3.008h-2c-0.55 0-1 0.45-1 1.002v2.005h3v3.008h-3V20c5.05-0.501 9-4.772 9-9.975" />
        </symbol>
        <symbol id="youtube-white" viewBox="0 0 20 20" fill="none">
            <path fill="var(--color1, #fbfbfb)" d="M11.67 9.826 9.33 8.734C9.126 8.64 8.958 8.746 8.958 8.972v2.056c0 0.226 0.168 0.332 0.372 0.238l2.339-1.092c0.205-0.096 0.205-0.252 0-0.348M10 0C4.477 0 0 4.477 0 10s4.477 10 10 10 10-4.477 10-10S15.523 0 10 0M10 14.063c-5.119 0-5.208-0.462-5.208-4.063S4.882 5.938 10 5.938 15.208 6.399 15.208 10 15.118 14.063 10 14.063" />
        </symbol>
    </defs>
</svg>